<svg xmlns="http://www.w3.org/2000/svg" width="180" height="180" version="1.1"><path fill="#1185D5" d="M0 0 C59.4 0 118.8 0 180 0 C180 59.4 180 118.8 180 180 C120.6 180 61.2 180 0 180 C0 120.6 0 61.2 0 0 Z" transform="translate(0,0)"/><path fill="#FDFEFE" d="M0 0 C59.4 0 118.8 0 180 0 C180 59.4 180 118.8 180 180 C120.6 180 61.2 180 0 180 C0 120.6 0 61.2 0 0 Z M24.75 22.0625 C23.96109375 22.75472656 23.1721875 23.44695313 22.359375 24.16015625 C16.32343882 31.42526487 14.25263364 38.38779833 14.35302734 47.70703125 C14.34426575 48.72630707 14.33550415 49.74558289 14.32647705 50.79574585 C14.30463102 54.13510846 14.31898393 57.47312603 14.3359375 60.8125 C14.33256514 63.15080009 14.32770903 65.48909846 14.32144165 67.82739258 C14.31409031 72.71615368 14.3247203 77.60445645 14.34814453 82.49316406 C14.37663043 88.74073271 14.36021723 94.98722718 14.33028221 101.23475647 C14.31216262 106.05969244 14.31798878 110.88437626 14.33092117 115.70932007 C14.33424227 118.0120761 14.33021406 120.31485548 14.31852341 122.61758423 C14.30573833 125.84332394 14.32530028 129.06735537 14.35302734 132.29296875 C14.34290619 133.23248383 14.33278503 134.1719989 14.32235718 135.13998413 C14.45910953 143.78400238 17.82971615 151.82971615 24 158 C31.6161472 163.49519481 37.62890157 165.29953218 46.95581055 165.29052734 C47.95484909 165.29724457 48.95388763 165.30396179 49.98320007 165.31088257 C53.28442366 165.32987185 56.58544394 165.33378763 59.88671875 165.3359375 C62.18732283 165.34236608 64.48792608 165.34909449 66.78852844 165.35610962 C71.6128631 165.36808566 76.43712614 165.37179023 81.26147461 165.37060547 C87.42717317 165.37040257 93.59240933 165.39767406 99.75799847 165.43214989 C104.51168401 165.45445037 109.26525898 165.45844199 114.01899147 165.45738602 C116.2910604 165.4597384 118.56313255 165.46854137 120.83514977 165.48405075 C124.0228288 165.50376849 127.20951996 165.49784887 130.3972168 165.48583984 C131.32588562 165.49707886 132.25455444 165.50831787 133.21136475 165.51989746 C142.02227231 165.43605547 150.11783772 162.60176 157 157 C163.74036322 149.47005137 165.45064745 141.43940692 165.41992188 131.61181641 C165.42839142 130.60258621 165.43686096 129.59335602 165.44558716 128.55354309 C165.46887773 125.23608603 165.46998117 121.91909494 165.46875 118.6015625 C165.47585636 116.28282488 165.48355605 113.96408901 165.49182129 111.64535522 C165.50524791 106.7918407 165.50684298 101.9384888 165.50097656 97.08496094 C165.49508246 90.88223456 165.52566964 84.68029142 165.56609344 78.47771645 C165.59201186 73.69056026 165.59484405 68.90359164 165.59120178 64.11637497 C165.59288914 61.83034675 165.60249443 59.54430951 165.62034607 57.25835037 C165.64261696 54.05403276 165.63279157 50.85128742 165.61523438 47.64697266 C165.62849762 46.71366623 165.64176086 45.7803598 165.65542603 44.81877136 C165.54681364 36.23668505 162.4618513 29.45356473 156.6875 23.125 C151.04744398 17.9036381 144.41521684 14.89067708 136.70722961 14.85955811 C135.85649368 14.85384796 135.00575775 14.84813782 134.12924194 14.84225464 C133.20398712 14.84113678 132.2787323 14.84001892 131.32543945 14.83886719 C129.85395195 14.83141983 129.85395195 14.83141983 128.35273743 14.82382202 C125.10624489 14.80921388 121.85980126 14.80239992 118.61328125 14.796875 C116.35369363 14.79112158 114.09410603 14.78536387 111.83451843 14.77960205 C107.09418511 14.76909531 102.35386872 14.76325078 97.61352539 14.75976562 C91.55204476 14.75428756 85.49078952 14.73027266 79.42937946 14.70179367 C74.75981502 14.68312819 70.09030439 14.67795956 65.4207058 14.67642975 C63.18688922 14.67341055 60.95307343 14.66540687 58.71929359 14.65224457 C55.58653485 14.63510575 52.45432038 14.6370838 49.3215332 14.64355469 C47.9488327 14.62973251 47.9488327 14.62973251 46.54840088 14.6156311 C38.21653251 14.66928463 31.03510711 16.32890064 24.75 22.0625 Z" transform="translate(0,0)"/><path fill="#FCFDFD" d="M0 0 C6.27 0 12.54 0 19 0 C19 0.66 19 1.32 19 2 C20.98 2 22.96 2 25 2 C25 2.99 25 3.98 25 5 C27.97 5 30.94 5 34 5 C34 6.32 34 7.64 34 9 C35.32 9 36.64 9 38 9 C38 10.32 38 11.64 38 13 C39.98 13 41.96 13 44 13 C44 14.32 44 15.64 44 17 C45.65 17 47.3 17 49 17 C49 17.99 49 18.98 49 20 C49.99 20 50.98 20 52 20 C52 20.99 52 21.98 52 23 C52.99 23 53.98 23 55 23 C55 35.21 55 47.42 55 60 C54.01 60 53.02 60 52 60 C52 61.32 52 62.64 52 64 C51.34 64 50.68 64 50 64 C50 65.32 50 66.64 50 68 C49.01 68 48.02 68 47 68 C47 68.66 47 69.32 47 70 C45.68 70 44.36 70 43 70 C43 71.32 43 72.64 43 74 C41.35 74 39.7 74 38 74 C38 75.32 38 76.64 38 78 C34.7 78 31.4 78 28 78 C28 79.32 28 80.64 28 82 C24.7 82 21.4 82 18 82 C18 83.32 18 84.64 18 86 C12.06 86 6.12 86 0 86 C0 84.68 0 83.36 0 82 C-3.3 82 -6.6 82 -10 82 C-10 80.68 -10 79.36 -10 78 C-13.3 78 -16.6 78 -20 78 C-20 76.68 -20 75.36 -20 74 C-21.65 74 -23.3 74 -25 74 C-25 72.68 -25 71.36 -25 70 C-26.32 70 -27.64 70 -29 70 C-29 69.01 -29 68.02 -29 67 C-29.99 67 -30.98 67 -32 67 C-32.33 64.69 -32.66 62.38 -33 60 C-34.32 60 -35.64 60 -37 60 C-37 48.12 -37 36.24 -37 24 C-36.01 24 -35.02 24 -34 24 C-34 22.68 -34 21.36 -34 20 C-33.01 20 -32.02 20 -31 20 C-31 19.01 -31 18.02 -31 17 C-29.02 17 -27.04 17 -25 17 C-25 15.68 -25 14.36 -25 13 C-23.35 13 -21.7 13 -20 13 C-20 11.68 -20 10.36 -20 9 C-18.68 9 -17.36 9 -16 9 C-16 7.68 -16 6.36 -16 5 C-13.03 5 -10.06 5 -7 5 C-7 4.01 -7 3.02 -7 2 C-4.69 2 -2.38 2 0 2 C0 1.34 0 0.68 0 0 Z" transform="translate(81,47)"/><path fill="#242424" d="M0 0 C3.96 0 7.92 0 12 0 C12 0.99 12 1.98 12 3 C12.99 3 13.98 3 15 3 C15 3.66 15 4.32 15 5 C15.66 5 16.32 5 17 5 C17 11.93 17 18.86 17 26 C9.74 26 2.48 26 -5 26 C-5 19.07 -5 12.14 -5 5 C-4.01 5 -3.02 5 -2 5 C-2 4.34 -2 3.68 -2 3 C-1.34 3 -0.68 3 0 3 C0 2.01 0 1.02 0 0 Z" transform="translate(105,71)"/><path fill="#252525" d="M0 0 C3.3 0 6.6 0 10 0 C10 0.99 10 1.98 10 3 C10.66 3 11.32 3 12 3 C12 3.66 12 4.32 12 5 C12.99 5 13.98 5 15 5 C15 11.93 15 18.86 15 26 C8.4 26 1.8 26 -5 26 C-5 19.4 -5 12.8 -5 6 C-4.01 6 -3.02 6 -2 6 C-2 7.65 -2 9.3 -2 11 C-0.02 11 1.96 11 4 11 C4 9.02 4 7.04 4 5 C2.02 5 0.04 5 -2 5 C-2 4.34 -2 3.68 -2 3 C-1.34 3 -0.68 3 0 3 C0 2.01 0 1.02 0 0 Z" transform="translate(65,71)"/><path fill="#373837" d="M0 0 C1.32 0 2.64 0 4 0 C4 0.99 4 1.98 4 3 C4.99 3 5.98 3 7 3 C7 3.66 7 4.32 7 5 C7.99 5 8.98 5 10 5 C10 5.66 10 6.32 10 7 C12.97 7 15.94 7 19 7 C19 7.99 19 8.98 19 10 C25.27 10 31.54 10 38 10 C38 9.01 38 8.02 38 7 C40.64 7 43.28 7 46 7 C46 6.34 46 5.68 46 5 C47.32 5 48.64 5 50 5 C50 4.01 50 3.02 50 2 C50.66 2 51.32 2 52 2 C52 1.34 52 0.68 52 0 C53.32 0 54.64 0 56 0 C56 1.32 56 2.64 56 4 C55.01 4 54.02 4 53 4 C53 4.99 53 5.98 53 7 C52.01 7 51.02 7 50 7 C50 7.99 50 8.98 50 10 C48.68 10 47.36 10 46 10 C46 10.66 46 11.32 46 12 C43.36 12 40.72 12 38 12 C38 12.66 38 13.32 38 14 C31.4 14 24.8 14 18 14 C18 13.34 18 12.68 18 12 C15.69 12 13.38 12 11 12 C11 11.34 11 10.68 11 10 C9.35 10 7.7 10 6 10 C6 9.01 6 8.02 6 7 C5.01 7 4.02 7 3 7 C3 6.01 3 5.02 3 4 C2.01 4 1.02 4 0 4 C0 2.68 0 1.36 0 0 Z" transform="translate(62,104)"/><path fill="#4D4E4D" d="M0 0 C1.32 0 2.64 0 4 0 C4 1.32 4 2.64 4 4 C3.01 4 2.02 4 1 4 C1 4.99 1 5.98 1 7 C0.01 7 -0.98 7 -2 7 C-2 7.99 -2 8.98 -2 10 C-3.32 10 -4.64 10 -6 10 C-6 10.66 -6 11.32 -6 12 C-14.91 11.67 -23.82 11.34 -33 11 C-33 10.67 -33 10.34 -33 10 C-26.73 10 -20.46 10 -14 10 C-14 9.01 -14 8.02 -14 7 C-11.36 7 -8.72 7 -6 7 C-6 6.34 -6 5.68 -6 5 C-4.68 5 -3.36 5 -2 5 C-2 4.01 -2 3.02 -2 2 C-1.34 2 -0.68 2 0 2 C0 1.34 0 0.68 0 0 Z" transform="translate(114,104)"/><path fill="#464747" d="M0 0 C1.32 0 2.64 0 4 0 C4 0.99 4 1.98 4 3 C4.99 3 5.98 3 7 3 C7 3.66 7 4.32 7 5 C7.99 5 8.98 5 10 5 C10 5.66 10 6.32 10 7 C12.97 7 15.94 7 19 7 C18.67 7.99 18.34 8.98 18 10 C18 9.34 18 8.68 18 8 C15.69 8 13.38 8 11 8 C11 8.66 11 9.32 11 10 C9.35 10 7.7 10 6 10 C6 9.01 6 8.02 6 7 C5.01 7 4.02 7 3 7 C3 6.01 3 5.02 3 4 C2.01 4 1.02 4 0 4 C0 2.68 0 1.36 0 0 Z" transform="translate(62,104)"/><path fill="#161617" d="M0 0 C1.32 0 2.64 0 4 0 C4 1.32 4 2.64 4 4 C3.01 4 2.02 4 1 4 C1 4.99 1 5.98 1 7 C0.01 7 -0.98 7 -2 7 C-2 7.66 -2 8.32 -2 9 C-3.65 9 -5.3 9 -7 9 C-6.34 8.67 -5.68 8.34 -5 8 C-5 7.01 -5 6.02 -5 5 C-4.01 5 -3.02 5 -2 5 C-2 4.01 -2 3.02 -2 2 C-1.34 2 -0.68 2 0 2 C0 1.34 0 0.68 0 0 Z" transform="translate(114,104)"/><path fill="#7F7F7F" d="M0 0 C0.33 0.66 0.66 1.32 1 2 C2.98 2 4.96 2 7 2 C7 3.98 7 5.96 7 8 C5.02 8 3.04 8 1 8 C1 6.35 1 4.7 1 3 C0.01 2.67 -0.98 2.34 -2 2 C-1.34 2 -0.68 2 0 2 C0 1.34 0 0.68 0 0 Z" transform="translate(62,74)"/><path fill="#EBEBE9" d="M0 0 C1.65 0 3.3 0 5 0 C5 1.98 5 3.96 5 6 C3.35 6 1.7 6 0 6 C0 4.02 0 2.04 0 0 Z" transform="translate(104,88)"/><path fill="#E1E1E1" d="M0 0 C1.65 0 3.3 0 5 0 C5 1.98 5 3.96 5 6 C3.35 6 1.7 6 0 6 C0 4.02 0 2.04 0 0 Z" transform="translate(104,76)"/><path fill="#F6F6F5" d="M0 0 C1.32 0 2.64 0 4 0 C4 1.98 4 3.96 4 6 C2.68 6 1.36 6 0 6 C0 4.02 0 2.04 0 0 Z" transform="translate(64,88)"/><path fill="#121413" d="M0 0 C2.31 0 4.62 0 7 0 C7 0.99 7 1.98 7 3 C4.69 3 2.38 3 0 3 C0 2.01 0 1.02 0 0 Z" transform="translate(73,112)"/><path fill="#3B3B3B" d="M0 0 C1.32 0 2.64 0 4 0 C4.625 1.8125 4.625 1.8125 5 4 C4.01 5.485 4.01 5.485 3 7 C3 6.01 3 5.02 3 4 C2.01 4 1.02 4 0 4 C0 2.68 0 1.36 0 0 Z" transform="translate(62,104)"/><path fill="#FDFDFB" d="M0 0 C1.32 0 2.64 0 4 0 C4 1.65 4 3.3 4 5 C2.68 5 1.36 5 0 5 C0 3.35 0 1.7 0 0 Z" transform="translate(64,77)"/><path fill="#404040" d="M0 0 C1.32 0 2.64 0 4 0 C4 1.32 4 2.64 4 4 C1.03 3.505 1.03 3.505 -2 3 C-1.34 2.67 -0.68 2.34 0 2 C0 1.34 0 0.68 0 0 Z" transform="translate(114,104)"/></svg>